<svg xmlns="http://www.w3.org/2000/svg" width="207.605" height="55.51" viewBox="0 0 207.6 55.51"><title>logo</title><path d="M44.581 27.755L42.706 38.48C40.83 48.983 32.129 55.51 18.327 55.51S-1.7 47.333.4 35.256l2.85-16.428C5.425 6.601 14.2 0 28.003 0 39.03 0 44.356 5.101 45.707 12.677c.374 1.8 0 2.625-1.951 3.226l-3.976 1.35c-1.95.675-2.625.3-3-1.575-.9-4.576-3.976-6.901-10.277-6.901-7.726 0-12.677 3.75-13.877 10.651L9.7 36.006c-1.275 6.977 2.4 10.727 10.127 10.727s12.752-3.75 13.727-8.851l.675-3.901H22.902c-1.875 0-2.4-.675-2.1-2.625l.676-3.601c.374-1.95 1.05-2.55 3-2.55H42.48c1.875 0 2.4.6 2.1 2.55zm25.207-13.353c6 0 10.802 1.125 13.202 2.326 2.176 1.125 2.476 1.725 2.026 4.125L79.69 50.858c-.3 1.801-.976 2.326-2.776 2.851a59.928 59.928 0 01-15.152 1.801c-10.727 0-15.003-6.752-13.277-16.203l1.875-10.202c1.725-10.277 7.951-14.703 19.428-14.703zm-.75 7.952c-6.001 0-9.227 2.175-10.277 7.876l-1.725 9.752c-.825 4.95 1.5 7.576 6.826 7.576a33.637 33.637 0 007.876-.975l3.975-22.429c.151-.525 0-.75-.599-.975a19.811 19.811 0 00-6.076-.825zm57.913-4.576l-5.401 30.906c-.45 2.325-1.125 3.225-3.675 4.2a41.672 41.672 0 01-15.153 2.626c-10.727 0-14.553-6.226-12.903-15.678l3.826-22.054c.3-1.725 1.05-2.25 2.775-2.25h4.051c1.726 0 2.176.525 1.875 2.25l-3.9 22.354c-.9 5.026 1.275 7.426 6.826 7.426a23.723 23.723 0 007.052-.9 1.337 1.337 0 001.05-1.275l4.875-27.605c.3-1.725.976-2.25 2.7-2.25h4.127c1.724 0 2.175.524 1.875 2.25zm28.207-3.376c1.725 0 2.25.526 1.95 2.326l-.6 3.3c-.3 1.726-.975 2.326-2.7 2.326h-2.701a26.275 26.275 0 00-7.352.9c-.674.15-.75.525-.9.9L137.98 52.06c-.3 1.725-1.05 2.325-2.774 2.325h-4.051c-1.726 0-2.176-.6-1.876-2.325l5.476-31.13c.45-2.4 1.125-3.3 3.601-4.276a46.76 46.76 0 0114.327-2.25zm15.378 3.376l-6 34.28c-.3 1.726-.976 2.326-2.7 2.326h-4.127c-1.725 0-2.175-.6-1.875-2.325l6.001-34.281c.3-1.726 1.05-2.25 2.776-2.25h4.05c1.726 0 2.175.524 1.875 2.25zm2.626-12.302l-.075.675c-.6 3.45-1.875 4.575-5.325 4.575h-.6c-3.376 0-4.352-1.124-3.676-4.575l.074-.675c.676-3.45 1.951-4.501 5.402-4.501h.525c3.45 0 4.35 1.05 3.675 4.501zm29.255 43.358l-.525 3.225c-.374 1.725-1.05 2.325-2.774 2.325h-26.255c-1.725 0-2.176-.6-1.8-2.325l.525-3.225a3.22 3.22 0 011.2-2.326l22.429-23.104h-16.504c-1.724 0-2.175-.6-1.875-2.325l.525-3.301c.376-1.726 1.05-2.25 2.776-2.25h25.504c1.726 0 2.176.525 1.876 2.25l-.525 3.3a4.078 4.078 0 01-1.35 2.476l-22.58 22.954h17.478c1.726 0 2.176.6 1.875 2.326z" fill="#86d1d8"/></svg>